<?xml version="1.0" encoding="utf-8"?>
<!-- Generator: Adobe Illustrator 26.0.2, SVG Export Plug-In . SVG Version: 6.00 Build 0)  -->
<svg version="1.1" id="Layer_1" xmlns="http://www.w3.org/2000/svg" xmlns:xlink="http://www.w3.org/1999/xlink" x="0px" y="0px"
	 viewBox="0 0 417 113.5" style="enable-background:new 0 0 417 113.5;" xml:space="preserve">
<style type="text/css">
	.st0{fill:#089A48;}
	.st1{fill:#CA2125;}
	.st2{fill:#374894;}
	.st3{fill:#565866;}
</style>
<g id="Layer_2_00000176752539919313549630000006068145969352504722_">
	<g id="Layer_1-2">
		<g id="g3">
			<path id="path5" class="st0" d="M43.2,100.9V87.4c0.5-0.2,1-0.4,1.4-0.7c6.4-3.8,7.1-14.6,1.5-24.1S30.7,48.5,24.3,52.3
				s-7.1,14.6-1.5,24.1c0.9,1.5,1.9,2.9,3,4.2v10l-13.9-7.9V32.9L7,29.7c-15.1,27.4-5.1,61.8,22.3,76.8c7.8,4.3,16.5,6.7,25.4,7
				v-5.8L43.2,100.9z"/>
			<path id="path7" class="st1" d="M27.1,21.8l8.5,5c-0.1,1.2-0.2,2.3-0.2,3.5c0.1,7.5,10.2,13.2,21.2,13s18.9-6.8,18.9-13.4
				c-0.1-7.5-7.2-13.3-18.3-13.7c-3,0-6,0.3-9,0.9l-6.2-4l14.7-8.4l43.4,25.2l5-2.7C88.8,0.5,53.9-8,27.2,8.3
				c-7.6,4.6-13.9,10.9-18.6,18.5l4.9,3.1C13.5,29.9,27.1,21.8,27.1,21.8z"/>
			<path id="path9" class="st2" d="M101.6,49.2L92.4,54c-0.3-0.1-2.4-2-2.8-2.2c-6.5-3.6-16.1,1.2-21.5,10.8s-4.9,20.7,1.6,24.3
				S86,86.2,91.3,76.5c1-2.2,1.9-4.5,2.6-6.8l7.9-4.5v17.3l-43.3,25.3v5.7c31.3-1,55.9-27.1,55-58.5c-0.3-8.8-2.6-17.4-6.8-25.1
				l-5,2.7L101.6,49.2L101.6,49.2z"/>
		</g>
		<g>
			<g>
				<path class="st3" d="M141,65.6h-8.2c-1,0.1-1.9-0.6-2-1.6c0-0.1,0-0.3,0-0.4V5.3c-0.1-1,0.6-1.9,1.6-2c0.1,0,0.3,0,0.4,0h30.9
					c1.3,0,1.9,0.7,1.9,2v6.6c0,1.4-0.6,2-1.9,2h-19.5c-0.8,0-1.2,0.4-1.2,1.1v15c-0.1,0.5,0.3,1.1,0.8,1.2c0.1,0,0.2,0,0.4,0h16.6
					c1-0.1,1.9,0.6,2,1.6c0,0.1,0,0.3,0,0.4v6.5c0,1.4-0.7,2.1-2,2.1h-16.6c-0.8,0-1.2,0.3-1.2,1.1v20.7c0.1,1-0.5,1.9-1.5,2
					C141.3,65.6,141.2,65.6,141,65.6z"/>
				<path class="st3" d="M180.8,65.6h-9.3c-1.2,0-1.5-0.7-1.2-2l15.3-58.2c0.4-1.3,1.6-2.1,2.9-2h12.9c1.3-0.2,2.6,0.7,2.9,2
					l15.3,58.2c0.4,1.4,0,2-1.2,2h-9.3c-0.5,0.1-1-0.1-1.4-0.4c-0.3-0.5-0.5-1-0.6-1.6l-2.7-10.7h-18.9l-2.7,10.7
					c0,0.6-0.3,1.1-0.6,1.6C181.8,65.4,181.3,65.6,180.8,65.6z M194.8,15l-7,28h14.3l-7-28H194.8z"/>
				<path class="st3" d="M228.2,63.5V5.3c-0.1-1,0.6-1.9,1.6-2c0.1,0,0.3,0,0.4,0h23.2c5.1,0,9,1.4,11.8,4.1
					c2.8,2.7,4.2,6.6,4.2,11.6v4c0,5.5-2.5,9-7.6,10.7c2.4,0.3,4.6,1.4,6.2,3.1c1.5,1.7,2.3,4.2,2.3,7.3v5.8c0,5-1.4,8.9-4.2,11.6
					c-2.8,2.7-6.7,4.1-11.7,4.1h-24.2c-1,0.1-1.9-0.5-2-1.5C228.1,63.9,228.1,63.7,228.2,63.5z M241.5,28.6h9.9
					c1.6,0.1,3.2-0.3,4.6-1.3c1-0.9,1.5-2.3,1.5-4.3v-3.8c0-2-0.5-3.4-1.4-4.3c-1.3-1-2.9-1.5-4.5-1.3h-10c-0.5-0.1-1,0.3-1.1,0.8
					c0,0.1,0,0.2,0,0.3v12.9c-0.1,0.5,0.3,1,0.8,1.1C241.3,28.6,241.4,28.6,241.5,28.6z M241.5,55.3h10.8c2.1,0,3.7-0.4,4.6-1.3
					s1.4-2.3,1.4-4.3v-5.6c0-2-0.5-3.4-1.5-4.3s-2.6-1.2-4.7-1.2h-10.6c-0.5-0.1-1,0.3-1.1,0.8c0,0.1,0,0.2,0,0.3v14.6
					c-0.1,0.5,0.3,1,0.8,1.1C241.4,55.3,241.4,55.3,241.5,55.3z"/>
			</g>
			<g>
				<path class="st3" d="M315.6,65.6h-30.8c-0.6,0-1-0.4-1-1.2V4.5c0-0.8,0.3-1.2,1-1.2h2.8c0.7,0,1.1,0.4,1.1,1.2v55.7
					c0,0.6,0.3,0.9,1,0.9h26c0.8,0,1.2,0.4,1.2,1.1v2.4C316.8,65.2,316.4,65.6,315.6,65.6z"/>
				<path class="st3" d="M325.9,65.6h-3c-0.7,0-0.9-0.4-0.7-1.2l19.3-59.9c0.1-0.7,0.7-1.2,1.4-1.2h4.5c0.7,0,1.2,0.5,1.4,1.2
					L368,64.4c0.2,0.8,0,1.2-0.7,1.2h-3.1c-0.6,0-1.1-0.4-1.3-1.2l-5.3-15.5h-25.4l-5.2,15.5C326.9,65.2,326.4,65.6,325.9,65.6z
					 M344.9,8.6l-11.2,35.9h22.8L345.2,8.6L344.9,8.6z"/>
				<path class="st3" d="M379.1,64.4V4.5c0-0.8,0.3-1.2,1-1.2h22.5c4.2,0,7.5,1.2,10,3.6s3.7,5.7,3.7,9.9v5.9
					c0,5.9-2.8,9.6-8.3,11.3c2.5,0.2,4.7,1.4,6.3,3.3c1.9,2.2,2.8,5.1,2.7,8v6.8c0,4.2-1.2,7.5-3.7,9.9s-5.8,3.6-10,3.6h-23.2
					C379.4,65.6,379.1,65.2,379.1,64.4z M384.9,31.9h17c3,0,5.4-0.8,7-2.4c1.7-1.9,2.6-4.3,2.5-6.9v-5.7c0-6.2-3.1-9.3-9.2-9.3
					h-17.3c-0.6,0-1,0.3-1,0.9V31C383.9,31.6,384.2,31.9,384.9,31.9z M384.9,61.3h18c6.1,0,9.2-3.1,9.2-9.3v-6.7
					c0-6.1-3.4-9.2-10.1-9.2h-17.1c-0.6,0-1,0.2-1,0.8v23.5C383.9,61,384.2,61.3,384.9,61.3z"/>
			</g>
		</g>
		<path class="st0" d="M270.4,108.5V95.1c0.1-1.7-0.5-3.5-1.6-4.8c-1.3-1.2-2.9-1.8-4.6-1.7h-1.8c-2.1,0-3.5,0.7-4.2,2.2H258v-9.5
			c0-0.3-0.2-0.7-0.5-0.7c-0.1,0-0.1,0-0.2,0h-2.6c-0.3-0.1-0.7,0.2-0.7,0.5c0,0.1,0,0.1,0,0.2v27.7c-0.1,0.3,0.2,0.7,0.5,0.7
			c0.1,0,0.1,0,0.2,0h2.6c0.3,0,0.7-0.2,0.7-0.5c0-0.1,0-0.1,0-0.2V95.7c0-2.3,1.1-3.5,3.4-3.5h2c2,0,3,1,3,3.1v13.8
			c-0.1,0.3,0.2,0.7,0.5,0.7c0.1,0,0.1,0,0.2,0h149.8v-1.3L270.4,108.5z"/>
		<path class="st0" d="M144.1,83.8c-0.1-0.5-0.5-0.8-1-0.7H139c-0.5,0-0.9,0.2-1,0.7l-7.2,25.2c-0.1,0.5,0,0.7,0.4,0.7h3
			c0.4,0,0.6-0.2,0.7-0.7l1.6-5.4h9.1l1.6,5.4c0,0.2,0.1,0.4,0.2,0.6c0.1,0.1,0.3,0.2,0.5,0.2h2.9c0.4,0,0.6-0.2,0.5-0.7L144.1,83.8
			z M137.3,100.4l3.6-13.3h0.2l3.7,13.3H137.3z"/>
		<path class="st0" d="M165.2,88.6h-1.8c-2.1,0-3.5,0.7-4.2,2.2H159v-1.5c0-0.3-0.2-0.7-0.5-0.7c-0.1,0-0.1,0-0.2,0h-2.6
			c-0.3,0-0.7,0.2-0.7,0.5c0,0.1,0,0.1,0,0.2v19.7c-0.1,0.3,0.2,0.7,0.5,0.7c0.1,0,0.1,0,0.2,0h2.6c0.3,0,0.7-0.2,0.7-0.5
			c0-0.1,0-0.1,0-0.2V95.7c0-2.4,1.1-3.5,3.4-3.5h2c2,0,3,1,3,3.1v13.8c-0.1,0.3,0.2,0.7,0.5,0.7c0.1,0,0.1,0,0.2,0h2.6
			c0.5,0,0.8-0.2,0.8-0.7v-14c0.1-1.7-0.5-3.5-1.6-4.8C168.6,89.1,166.9,88.5,165.2,88.6z"/>
		<path class="st0" d="M186.4,98.8l-4.6-2.3c-1.4-0.7-2.1-1.4-2.1-2.3v-0.4c0-0.5,0.3-0.9,0.7-1.1c0.6-0.3,1.2-0.5,1.9-0.4h6.1
			c0.4,0,0.7-0.2,0.7-0.7v-2c0-0.5-0.2-0.7-0.7-0.7h-6.9c-3.9,0-5.9,1.8-5.9,5.3c0,1.1,0.3,2.2,1,3.2c0.8,1,1.9,1.7,3.1,2.2l4.5,2.2
			c1.1,0.4,1.8,1.3,1.9,2.5v0.5c0,1.2-0.9,1.9-2.7,1.9h-7c-0.5,0-0.7,0.2-0.7,0.7v2c-0.1,0.3,0.2,0.7,0.5,0.7c0.1,0,0.1,0,0.2,0h7.7
			c4.1,0,6.2-1.8,6.2-5.4c0.1-1.2-0.2-2.4-0.8-3.4C188.6,99.9,187.6,99.2,186.4,98.8z"/>
		<path class="st0" d="M204.7,88.5h-1.8c-2.1,0-3.5,0.7-4.2,2.2h-0.2v-9.4c0-0.3-0.2-0.7-0.5-0.7c-0.1,0-0.1,0-0.2,0h-2.6
			c-0.3-0.1-0.7,0.2-0.7,0.5c0,0.1,0,0.1,0,0.2v27.7c0,0.3,0.2,0.7,0.5,0.7c0.1,0,0.1,0,0.2,0h9.5c1.8,0.1,3.5-0.5,4.8-1.7
			c1.2-1.3,1.8-3,1.7-4.7v-8.5c0.1-1.7-0.5-3.4-1.7-4.7C208.1,89,206.4,88.4,204.7,88.5z M207.1,103.2c0,2-1,3.1-3,3.1H199
			c-0.2,0-0.4-0.1-0.5-0.3c0,0,0-0.1,0-0.1V95.5c0-2.3,1.1-3.5,3.4-3.5h2.2c2,0,3,1,3,3.1L207.1,103.2z"/>
		<path class="st0" d="M231.3,88.6H222c-3.2-0.3-6.1,2-6.4,5.2c0,0.4,0,0.8,0,1.2v8.3c-0.3,3.2,2,6.1,5.3,6.4c0.4,0,0.8,0,1.2,0h1.6
			c2.1,0,3.5-0.7,4.2-2.2h0.2v1.5c-0.1,0.3,0.2,0.7,0.5,0.7c0.1,0,0.1,0,0.2,0h2.6c0.5,0,0.7-0.2,0.7-0.7V89.3
			c0-0.4-0.2-0.7-0.5-0.7C231.4,88.6,231.3,88.6,231.3,88.6z M227.9,102.7c0,2.3-1.1,3.5-3.4,3.5h-2c-2,0-3-1-3-3.1v-8
			c0-2,1-3.1,3-3.1h4.9c0.3,0,0.5,0.1,0.5,0.4L227.9,102.7z"/>
		<path class="st0" d="M249.3,88.6h-6.1c-3.2-0.3-6.1,2-6.4,5.2c0,0.4,0,0.8,0,1.2v8.3c-0.3,3.2,2,6.1,5.3,6.4c0.4,0,0.8,0,1.2,0
			h6.1c0.5,0,0.7-0.2,0.7-0.7V107c0-0.5-0.2-0.7-0.7-0.7h-5.5c-2,0-3-1-3-3.1v-8c0-2,1-3.1,3-3.1h5.5c0.5,0,0.7-0.2,0.7-0.7v-2.2
			c0-0.4-0.2-0.7-0.6-0.7C249.4,88.6,249.4,88.6,249.3,88.6z"/>
	</g>
</g>
</svg>
