<?xml version="1.0" encoding="UTF-8" standalone="no"?>
<!-- Generator: Adobe Illustrator 15.1.0, SVG Export Plug-In . SVG Version: 6.00 Build 0)  -->

<svg
   xmlns:dc="http://purl.org/dc/elements/1.1/"
   xmlns:cc="http://creativecommons.org/ns#"
   xmlns:rdf="http://www.w3.org/1999/02/22-rdf-syntax-ns#"
   xmlns:svg="http://www.w3.org/2000/svg"
   xmlns="http://www.w3.org/2000/svg"
   xmlns:sodipodi="http://sodipodi.sourceforge.net/DTD/sodipodi-0.dtd"
   xmlns:inkscape="http://www.inkscape.org/namespaces/inkscape"
   version="1.1"
   id="Ebene_1"
   x="0px"
   y="0px"
   width="250"
   height="445"
   viewBox="-16.296 163.5 250 445"
   enable-background="new -16.296 163.5 457 573"
   xml:space="preserve"
   sodipodi:docname="led_aufbau.svg"
   inkscape:version="0.92.1 r15371"><metadata
     id="metadata28"><rdf:RDF><cc:Work
         rdf:about=""><dc:format>image/svg+xml</dc:format><dc:type
           rdf:resource="http://purl.org/dc/dcmitype/StillImage" /><dc:title></dc:title></cc:Work></rdf:RDF></metadata><defs
     id="defs26" /><sodipodi:namedview
     pagecolor="#ffffff"
     bordercolor="#666666"
     borderopacity="1"
     objecttolerance="10"
     gridtolerance="10"
     guidetolerance="10"
     inkscape:pageopacity="0"
     inkscape:pageshadow="2"
     inkscape:window-width="640"
     inkscape:window-height="480"
     id="namedview24"
     showgrid="false"
     fit-margin-top="0"
     fit-margin-left="0"
     fit-margin-right="0"
     fit-margin-bottom="0"
     inkscape:zoom="1.0304261"
     inkscape:cx="-282.29203"
     inkscape:cy="194.18596"
     inkscape:current-layer="g4569" /><g
     id="g4519"
     transform="translate(-40,-69.71333)"><path
       style="fill:#ff0000;stroke:none;stroke-width:1"
       inkscape:connector-curvature="0"
       d="M 87.573185,439.65934 V 329.33493 c 0,0 11.61527,-38.20067 60.825285,-39.72808 49.21001,-1.52741 61.43634,42.17365 61.43634,42.17365 v 107.87884"
       id="path26577"
       sodipodi:nodetypes="ccscc" /><path
       style="fill:#c61818;fill-opacity:1;stroke:none;stroke-width:1"
       inkscape:connector-curvature="0"
       d="m 106.37141,439.96653 v -108.797 h 13.14292 l 19.56847,11.296 3.35569,8.87438 -16.50546,6.11221 v 82.51441 z"
       id="path26579" /><path
       style="fill:#c61818;fill-opacity:1;stroke:none;stroke-width:1"
       inkscape:connector-curvature="0"
       d="m 132.04619,329.64212 h 58.9904 V 439.96653 H 160.778 L 146.4121,412.4603 V 365.701 l 12.53186,-20.16782 z"
       id="path26581" /><path
       style="fill:#818180;stroke:none;stroke-width:1"
       inkscape:connector-curvature="0"
       d="m 111.4148,472.37457 v 203.83875 h 20.78459 V 472.37457 Z"
       id="path26583" /><path
       style="fill:#818180;stroke:none;stroke-width:1"
       inkscape:connector-curvature="0"
       d="m 165.20947,472.37457 v 138.74709 h 20.78374 V 472.37457 Z"
       id="path26585" /><path
       style="fill:#ff0000;stroke:none;stroke-width:1"
       inkscape:connector-curvature="0"
       d="m 66.789441,439.17411 v 33.61416 H 230.61856 v -33.00234 z"
       id="path26575" /></g><g
     inkscape:groupmode="layer"
     id="layer1"
     inkscape:label="Layer 1" /><g
     inkscape:groupmode="layer"
     id="layer2"
     inkscape:label="text"
     style="display:none"><g
       id="g4523"
       transform="translate(15.320661,87.790231)"><path
         style="fill:none;stroke:#010101;stroke-width:4"
         inkscape:connector-curvature="0"
         d="m 30.378787,434.77077 v 34.53061"
         id="path26569" /><path
         style="fill:none;stroke:#010101;stroke-width:4"
         inkscape:connector-curvature="0"
         d="M 13.26226,452.03608 H 47.495313"
         id="path26571" /></g><text
       id="text15"
       x="108.23481"
       y="179.15799"
       style="font-style:normal;font-variant:normal;font-weight:normal;font-stretch:normal;font-size:17.97100067px;font-family:Verdana;-inkscape-font-specification:'Verdana, Normal';font-variant-ligatures:normal;font-variant-caps:normal;font-variant-numeric:normal;font-feature-settings:normal;text-align:center;writing-mode:lr-tb;text-anchor:middle;stroke-width:1"
       transform="scale(1.0000783,0.9999217)"><tspan
         sodipodi:role="line"
         id="tspan4509"
         x="108.23481"
         y="179.15799"
         style="font-style:normal;font-variant:normal;font-weight:normal;font-stretch:normal;font-size:17.97100067px;font-family:Verdana;-inkscape-font-specification:'Verdana, Normal';font-variant-ligatures:normal;font-variant-caps:normal;font-variant-numeric:normal;font-feature-settings:normal;text-align:center;writing-mode:lr-tb;text-anchor:middle;stroke-width:1">durchsichtiges</tspan><tspan
         sodipodi:role="line"
         id="tspan4511"
         x="108.23481"
         y="201.62173"
         style="font-style:normal;font-variant:normal;font-weight:normal;font-stretch:normal;font-size:17.97100067px;font-family:Verdana;-inkscape-font-specification:'Verdana, Normal';font-variant-ligatures:normal;font-variant-caps:normal;font-variant-numeric:normal;font-feature-settings:normal;text-align:center;writing-mode:lr-tb;text-anchor:middle;stroke-width:1">Kunststoffgehäuse</tspan></text>
<text
       font-size="36"
       id="text17"
       style="font-style:normal;font-variant:normal;font-weight:normal;font-stretch:normal;font-size:17.97094536px;font-family:Verdana;-inkscape-font-specification:'Verdana, Normal';font-variant-ligatures:normal;font-variant-caps:normal;font-variant-numeric:normal;font-feature-settings:normal;text-align:start;writing-mode:lr-tb;text-anchor:start;stroke-width:1"
       x="156.80048"
       y="510.66165"
       transform="scale(1.0000783,0.9999217)">Kathode</text>
<text
       font-size="36"
       id="text19"
       style="font-style:normal;font-variant:normal;font-weight:normal;font-stretch:normal;font-size:17.97094536px;font-family:Verdana;-inkscape-font-specification:'Verdana, Normal';font-variant-ligatures:normal;font-variant-caps:normal;font-variant-numeric:normal;font-feature-settings:normal;text-align:start;writing-mode:lr-tb;text-anchor:start;stroke-width:1"
       y="510.66165"
       transform="scale(1.0000783,0.9999217)"
       x="7.2134428">Anode</text>
<path
       style="fill:none;stroke:#010101;stroke-width:4"
       inkscape:connector-curvature="0"
       d="m 158.61172,539.82631 h 34.23305"
       id="path26571-1" /></g><g
     style="display:inline"
     inkscape:label="text Kopie"
     id="g4569"
     inkscape:groupmode="layer"><g
       transform="translate(15.320661,87.790231)"
       id="g4555"><path
         id="path4551"
         d="m 30.378787,434.77077 v 34.53061"
         inkscape:connector-curvature="0"
         style="fill:none;stroke:#010101;stroke-width:4" /><path
         id="path4553"
         d="M 13.26226,452.03608 H 47.495313"
         inkscape:connector-curvature="0"
         style="fill:none;stroke:#010101;stroke-width:4" /></g><g
       aria-label="durchsichtiges
Kunststoffgehäuse"
       transform="scale(1.0000783,0.9999217)"
       style="font-style:normal;font-variant:normal;font-weight:normal;font-stretch:normal;font-size:17.97100067px;font-family:Verdana;-inkscape-font-specification:'Verdana, Normal';font-variant-ligatures:normal;font-variant-caps:normal;font-variant-numeric:normal;font-feature-settings:normal;text-align:center;writing-mode:lr-tb;text-anchor:middle;stroke-width:1"
       id="text4561"><path
         d="m 53.189845,179.15799 h -1.649681 v -1.02666 q -0.710767,0.61424 -1.482959,0.95646 -0.772191,0.34222 -1.676006,0.34222 -1.754981,0 -2.790419,-1.35133 -1.026664,-1.35134 -1.026664,-3.74689 0,-1.24603 0.350996,-2.22005 0.359771,-0.97401 0.965239,-1.65845 0.596694,-0.6669 1.386435,-1.01789 0.798516,-0.351 1.649682,-0.351 0.772191,0 1.368885,0.16672 0.596693,0.15795 1.254811,0.50017 v -4.24705 h 1.649681 z m -1.649681,-2.4131 v -5.62471 q -0.666893,-0.29835 -1.193387,-0.41242 -0.526494,-0.11408 -1.149512,-0.11408 -1.386435,0 -2.158626,0.96524 -0.772192,0.96524 -0.772192,2.73777 0,1.74621 0.596694,2.6588 0.596693,0.90381 1.912928,0.90381 0.701993,0 1.421535,-0.30712 0.719542,-0.31589 1.34256,-0.80729 z"
         style="font-style:normal;font-variant:normal;font-weight:normal;font-stretch:normal;font-size:17.97100067px;font-family:Verdana;-inkscape-font-specification:'Verdana, Normal';font-variant-ligatures:normal;font-variant-caps:normal;font-variant-numeric:normal;font-feature-settings:normal;text-align:center;writing-mode:lr-tb;text-anchor:middle;stroke-width:1"
         id="path4571"
         inkscape:connector-curvature="0" /><path
         d="m 64.562119,179.15799 h -1.649682 v -1.08809 q -0.833616,0.65812 -1.597032,1.00912 -0.763417,0.35099 -1.684781,0.35099 -1.544383,0 -2.404324,-0.93891 -0.85994,-0.94769 -0.85994,-2.77287 v -6.36181 h 1.649682 v 5.58084 q 0,0.74587 0.0702,1.28114 0.0702,0.52649 0.298346,0.90381 0.236923,0.3861 0.614244,0.5616 0.37732,0.17549 1.096862,0.17549 0.640568,0 1.39521,-0.33344 0.763417,-0.33345 1.421534,-0.85117 v -7.31827 h 1.649682 z"
         style="font-style:normal;font-variant:normal;font-weight:normal;font-stretch:normal;font-size:17.97100067px;font-family:Verdana;-inkscape-font-specification:'Verdana, Normal';font-variant-ligatures:normal;font-variant-caps:normal;font-variant-numeric:normal;font-feature-settings:normal;text-align:center;writing-mode:lr-tb;text-anchor:middle;stroke-width:1"
         id="path4573"
         inkscape:connector-curvature="0" /><path
         d="m 73.924941,171.15528 h -0.08775 q -0.368546,-0.0877 -0.719542,-0.12285 -0.342222,-0.0439 -0.816066,-0.0439 -0.763417,0 -1.474184,0.34222 -0.710767,0.33344 -1.368885,0.86871 v 6.9585 h -1.649682 v -9.80157 h 1.649682 v 1.44786 q 0.982789,-0.78974 1.728656,-1.11441 0.754642,-0.33345 1.535608,-0.33345 0.42997,0 0.623018,0.0263 0.193048,0.0175 0.579144,0.079 z"
         style="font-style:normal;font-variant:normal;font-weight:normal;font-stretch:normal;font-size:17.97100067px;font-family:Verdana;-inkscape-font-specification:'Verdana, Normal';font-variant-ligatures:normal;font-variant-caps:normal;font-variant-numeric:normal;font-feature-settings:normal;text-align:center;writing-mode:lr-tb;text-anchor:middle;stroke-width:1"
         id="path4575"
         inkscape:connector-curvature="0" /><path
         d="m 82.743716,178.54375 q -0.82484,0.39487 -1.570707,0.61424 -0.737092,0.21937 -1.570708,0.21937 -1.061763,0 -1.948028,-0.30712 -0.886265,-0.3159 -1.518058,-0.94769 -0.640568,-0.63179 -0.991564,-1.59703 -0.350996,-0.96524 -0.350996,-2.25515 0,-2.40432 1.316235,-3.77321 1.32501,-1.36888 3.492411,-1.36888 0.842391,0 1.649682,0.23692 0.816066,0.23692 1.491733,0.57914 v 1.83396 h -0.08775 q -0.754641,-0.58792 -1.561932,-0.90382 -0.798516,-0.3159 -1.561933,-0.3159 -1.403984,0 -2.22005,0.94769 -0.807291,0.93892 -0.807291,2.7641 0,1.77253 0.789741,2.72899 0.798516,0.94769 2.2376,0.94769 0.500169,0 1.017889,-0.13162 0.517719,-0.13162 0.930139,-0.34222 0.359771,-0.18427 0.675668,-0.3861 0.315896,-0.2106 0.500169,-0.35977 h 0.08775 z"
         style="font-style:normal;font-variant:normal;font-weight:normal;font-stretch:normal;font-size:17.97100067px;font-family:Verdana;-inkscape-font-specification:'Verdana, Normal';font-variant-ligatures:normal;font-variant-caps:normal;font-variant-numeric:normal;font-feature-settings:normal;text-align:center;writing-mode:lr-tb;text-anchor:middle;stroke-width:1"
         id="path4577"
         inkscape:connector-curvature="0" /><path
         d="m 93.063003,179.15799 h -1.649682 v -5.58084 q 0,-0.67567 -0.07897,-1.26358 -0.07897,-0.5967 -0.289571,-0.93014 -0.219373,-0.36855 -0.631793,-0.54405 -0.412421,-0.18427 -1.070539,-0.18427 -0.675667,0 -1.412759,0.33345 -0.737092,0.33344 -1.412759,0.85116 v 7.31827 h -1.649682 v -13.65375 h 1.649682 v 4.94027 q 0.772191,-0.64057 1.597032,-1.00034 0.824841,-0.35977 1.693556,-0.35977 1.588258,0 2.421873,0.95647 0.833616,0.95646 0.833616,2.75532 z"
         style="font-style:normal;font-variant:normal;font-weight:normal;font-stretch:normal;font-size:17.97100067px;font-family:Verdana;-inkscape-font-specification:'Verdana, Normal';font-variant-ligatures:normal;font-variant-caps:normal;font-variant-numeric:normal;font-feature-settings:normal;text-align:center;writing-mode:lr-tb;text-anchor:middle;stroke-width:1"
         id="path4579"
         inkscape:connector-curvature="0" /><path
         d="m 103.24189,176.33247 q 0,1.34256 -1.11441,2.2025 -1.10564,0.85994 -3.027345,0.85994 -1.088088,0 -2.000678,-0.25447 -0.903815,-0.26325 -1.518058,-0.57037 v -1.8515 h 0.08775 q 0.780966,0.58792 1.737431,0.93891 0.956464,0.34222 1.833954,0.34222 1.088086,0 1.702326,-0.35099 0.61425,-0.351 0.61425,-1.10564 0,-0.57915 -0.33345,-0.87749 -0.33345,-0.29835 -1.281134,-0.50895 -0.350996,-0.079 -0.921364,-0.18427 -0.561594,-0.1053 -1.026664,-0.22815 -1.289911,-0.34222 -1.833955,-1.00034 -0.535269,-0.66689 -0.535269,-1.63213 0,-0.60547 0.245698,-1.14073 0.254472,-0.53527 0.763416,-0.95647 0.491395,-0.41242 1.246036,-0.64934 0.763417,-0.2457 1.702331,-0.2457 0.877485,0 1.772525,0.21937 0.90382,0.2106 1.50051,0.51772 v 1.76376 h -0.0877 q -0.63179,-0.46507 -1.5356,-0.78097 -0.90382,-0.32467 -1.772533,-0.32467 -0.903815,0 -1.526833,0.351 -0.623018,0.34222 -0.623018,1.02666 0,0.60547 0.377321,0.91259 0.368545,0.30712 1.193386,0.50017 0.456295,0.1053 1.017889,0.2106 0.570368,0.1053 0.947688,0.19304 1.14951,0.26325 1.77253,0.90382 0.62302,0.64934 0.62302,1.71988 z"
         style="font-style:normal;font-variant:normal;font-weight:normal;font-stretch:normal;font-size:17.97100067px;font-family:Verdana;-inkscape-font-specification:'Verdana, Normal';font-variant-ligatures:normal;font-variant-caps:normal;font-variant-numeric:normal;font-feature-settings:normal;text-align:center;writing-mode:lr-tb;text-anchor:middle;stroke-width:1"
         id="path4581"
         inkscape:connector-curvature="0" /><path
         d="m 107.38364,167.71552 h -1.86028 v -1.71111 h 1.86028 z m -0.10529,11.44247 h -1.64969 v -9.80157 h 1.64969 z"
         style="font-style:normal;font-variant:normal;font-weight:normal;font-stretch:normal;font-size:17.97100067px;font-family:Verdana;-inkscape-font-specification:'Verdana, Normal';font-variant-ligatures:normal;font-variant-caps:normal;font-variant-numeric:normal;font-feature-settings:normal;text-align:center;writing-mode:lr-tb;text-anchor:middle;stroke-width:1"
         id="path4583"
         inkscape:connector-curvature="0" /><path
         d="m 117.73803,178.54375 q -0.82484,0.39487 -1.57071,0.61424 -0.73709,0.21937 -1.57071,0.21937 -1.06176,0 -1.94802,-0.30712 -0.88627,-0.3159 -1.51806,-0.94769 -0.64057,-0.63179 -0.99157,-1.59703 -0.35099,-0.96524 -0.35099,-2.25515 0,-2.40432 1.31623,-3.77321 1.32501,-1.36888 3.49241,-1.36888 0.84239,0 1.64969,0.23692 0.81606,0.23692 1.49173,0.57914 v 1.83396 h -0.0877 q -0.75464,-0.58792 -1.56193,-0.90382 -0.79852,-0.3159 -1.56194,-0.3159 -1.40398,0 -2.22005,0.94769 -0.80729,0.93892 -0.80729,2.7641 0,1.77253 0.78974,2.72899 0.79852,0.94769 2.2376,0.94769 0.50017,0 1.01789,-0.13162 0.51772,-0.13162 0.93014,-0.34222 0.35977,-0.18427 0.67567,-0.3861 0.3159,-0.2106 0.50017,-0.35977 h 0.0877 z"
         style="font-style:normal;font-variant:normal;font-weight:normal;font-stretch:normal;font-size:17.97100067px;font-family:Verdana;-inkscape-font-specification:'Verdana, Normal';font-variant-ligatures:normal;font-variant-caps:normal;font-variant-numeric:normal;font-feature-settings:normal;text-align:center;writing-mode:lr-tb;text-anchor:middle;stroke-width:1"
         id="path4585"
         inkscape:connector-curvature="0" /><path
         d="m 128.05732,179.15799 h -1.64969 v -5.58084 q 0,-0.67567 -0.079,-1.26358 -0.079,-0.5967 -0.28957,-0.93014 -0.21937,-0.36855 -0.6318,-0.54405 -0.41242,-0.18427 -1.07053,-0.18427 -0.67567,0 -1.41276,0.33345 -0.73709,0.33344 -1.41276,0.85116 v 7.31827 h -1.64968 v -13.65375 h 1.64968 v 4.94027 q 0.77219,-0.64057 1.59703,-1.00034 0.82484,-0.35977 1.69356,-0.35977 1.58825,0 2.42187,0.95647 0.83362,0.95646 0.83362,2.75532 z"
         style="font-style:normal;font-variant:normal;font-weight:normal;font-stretch:normal;font-size:17.97100067px;font-family:Verdana;-inkscape-font-specification:'Verdana, Normal';font-variant-ligatures:normal;font-variant-caps:normal;font-variant-numeric:normal;font-feature-settings:normal;text-align:center;writing-mode:lr-tb;text-anchor:middle;stroke-width:1"
         id="path4587"
         inkscape:connector-curvature="0" /><path
         d="m 136.32328,179.07024 q -0.46507,0.12285 -1.01789,0.20182 -0.54405,0.079 -0.97402,0.079 -1.50051,0 -2.28147,-0.80729 -0.78097,-0.80729 -0.78097,-2.5886 v -5.21229 h -1.11441 v -1.38644 h 1.11441 v -2.81674 h 1.64968 v 2.81674 h 3.40467 v 1.38644 h -3.40467 v 4.46642 q 0,0.77219 0.0351,1.21094 0.0351,0.42997 0.2457,0.80729 0.19305,0.351 0.5265,0.51772 0.34222,0.15795 1.03543,0.15795 0.40365,0 0.84239,-0.11408 0.43875,-0.12284 0.6318,-0.20182 h 0.0877 z"
         style="font-style:normal;font-variant:normal;font-weight:normal;font-stretch:normal;font-size:17.97100067px;font-family:Verdana;-inkscape-font-specification:'Verdana, Normal';font-variant-ligatures:normal;font-variant-caps:normal;font-variant-numeric:normal;font-feature-settings:normal;text-align:center;writing-mode:lr-tb;text-anchor:middle;stroke-width:1"
         id="path4589"
         inkscape:connector-curvature="0" /><path
         d="m 140.09648,167.71552 h -1.86028 v -1.71111 h 1.86028 z m -0.1053,11.44247 h -1.64968 v -9.80157 h 1.64968 z"
         style="font-style:normal;font-variant:normal;font-weight:normal;font-stretch:normal;font-size:17.97100067px;font-family:Verdana;-inkscape-font-specification:'Verdana, Normal';font-variant-ligatures:normal;font-variant-caps:normal;font-variant-numeric:normal;font-feature-settings:normal;text-align:center;writing-mode:lr-tb;text-anchor:middle;stroke-width:1"
         id="path4591"
         inkscape:connector-curvature="0" /><path
         d="m 151.15286,178.04358 q 0,2.49207 -1.13196,3.65913 -1.13197,1.16706 -3.48364,1.16706 -0.78097,0 -1.52683,-0.11407 -0.7371,-0.1053 -1.45664,-0.30712 v -1.68478 h 0.0877 q 0.40365,0.15794 1.28114,0.38609 0.87749,0.23692 1.75498,0.23692 0.84239,0 1.39521,-0.20182 0.55282,-0.20182 0.85994,-0.56159 0.30712,-0.34222 0.43874,-0.82484 0.13163,-0.48262 0.13163,-1.07932 v -0.89504 q -0.74587,0.5967 -1.43031,0.89504 -0.67567,0.28958 -1.72866,0.28958 -1.75498,0 -2.79042,-1.26359 -1.02666,-1.27236 -1.02666,-3.58016 0,-1.26359 0.35099,-2.17618 0.35978,-0.92136 0.97402,-1.58825 0.57037,-0.62302 1.38643,-0.96524 0.81607,-0.351 1.62336,-0.351 0.85117,0 1.42153,0.1755 0.57915,0.16672 1.21972,0.51772 l 0.1053,-0.4212 h 1.54438 z m -1.64968,-1.57949 v -5.34391 q -0.65812,-0.29835 -1.22849,-0.4212 -0.56159,-0.13162 -1.12319,-0.13162 -1.36011,0 -2.14107,0.91259 -0.78097,0.91259 -0.78097,2.65002 0,1.64968 0.57914,2.50085 0.57915,0.85116 1.92171,0.85116 0.71954,0 1.43908,-0.27202 0.72832,-0.2808 1.33379,-0.74587 z"
         style="font-style:normal;font-variant:normal;font-weight:normal;font-stretch:normal;font-size:17.97100067px;font-family:Verdana;-inkscape-font-specification:'Verdana, Normal';font-variant-ligatures:normal;font-variant-caps:normal;font-variant-numeric:normal;font-feature-settings:normal;text-align:center;writing-mode:lr-tb;text-anchor:middle;stroke-width:1"
         id="path4593"
         inkscape:connector-curvature="0" /><path
         d="m 162.60411,174.42832 h -7.22175 q 0,0.90381 0.27202,1.57948 0.27203,0.66689 0.74587,1.09686 0.4563,0.4212 1.07931,0.6318 0.6318,0.21059 1.38644,0.21059 1.00034,0 2.00945,-0.39487 1.01789,-0.40364 1.44786,-0.78974 h 0.0877 v 1.79886 q -0.83362,0.35099 -1.70233,0.58791 -0.86872,0.23693 -1.82518,0.23693 -2.43942,0 -3.80831,-1.31624 -1.36888,-1.32501 -1.36888,-3.75566 0,-2.40432 1.30746,-3.81708 1.31623,-1.41276 3.45731,-1.41276 1.98313,0 3.05366,1.15829 1.07932,1.15829 1.07932,3.29059 z m -1.60581,-1.26359 q -0.009,-1.29868 -0.65812,-2.00945 -0.64057,-0.71077 -1.9568,-0.71077 -1.32501,0 -2.11475,0.78097 -0.78097,0.78096 -0.88627,1.93925 z"
         style="font-style:normal;font-variant:normal;font-weight:normal;font-stretch:normal;font-size:17.97100067px;font-family:Verdana;-inkscape-font-specification:'Verdana, Normal';font-variant-ligatures:normal;font-variant-caps:normal;font-variant-numeric:normal;font-feature-settings:normal;text-align:center;writing-mode:lr-tb;text-anchor:middle;stroke-width:1"
         id="path4595"
         inkscape:connector-curvature="0" /><path
         d="m 172.10732,176.33247 q 0,1.34256 -1.11441,2.2025 -1.10564,0.85994 -3.02734,0.85994 -1.08809,0 -2.00068,-0.25447 -0.90382,-0.26325 -1.51806,-0.57037 v -1.8515 h 0.0877 q 0.78097,0.58792 1.73743,0.93891 0.95647,0.34222 1.83396,0.34222 1.08808,0 1.70233,-0.35099 0.61424,-0.351 0.61424,-1.10564 0,-0.57915 -0.33345,-0.87749 -0.33344,-0.29835 -1.28113,-0.50895 -0.351,-0.079 -0.92137,-0.18427 -0.56159,-0.1053 -1.02666,-0.22815 -1.28991,-0.34222 -1.83395,-1.00034 -0.53527,-0.66689 -0.53527,-1.63213 0,-0.60547 0.24569,-1.14073 0.25448,-0.53527 0.76342,-0.95647 0.49139,-0.41242 1.24604,-0.64934 0.76341,-0.2457 1.70233,-0.2457 0.87749,0 1.77253,0.21937 0.90381,0.2106 1.50051,0.51772 v 1.76376 h -0.0877 q -0.6318,-0.46507 -1.53561,-0.78097 -0.90382,-0.32467 -1.77253,-0.32467 -0.90382,0 -1.52683,0.351 -0.62302,0.34222 -0.62302,1.02666 0,0.60547 0.37732,0.91259 0.36854,0.30712 1.19339,0.50017 0.45629,0.1053 1.01788,0.2106 0.57037,0.1053 0.94769,0.19304 1.14952,0.26325 1.77253,0.90382 0.62302,0.64934 0.62302,1.71988 z"
         style="font-style:normal;font-variant:normal;font-weight:normal;font-stretch:normal;font-size:17.97100067px;font-family:Verdana;-inkscape-font-specification:'Verdana, Normal';font-variant-ligatures:normal;font-variant-caps:normal;font-variant-numeric:normal;font-feature-settings:normal;text-align:center;writing-mode:lr-tb;text-anchor:middle;stroke-width:1"
         id="path4597"
         inkscape:connector-curvature="0" /><path
         d="m 37.096674,201.62174 h -2.25515 l -5.168418,-5.81776 -1.298685,1.38643 v 4.43133 H 26.63699 v -13.06583 h 1.737431 v 6.8181 l 6.344254,-6.8181 h 2.105977 l -5.83531,6.14243 z"
         style="font-style:normal;font-variant:normal;font-weight:normal;font-stretch:normal;font-size:17.97100067px;font-family:Verdana;-inkscape-font-specification:'Verdana, Normal';font-variant-ligatures:normal;font-variant-caps:normal;font-variant-numeric:normal;font-feature-settings:normal;text-align:center;writing-mode:lr-tb;text-anchor:middle;stroke-width:1"
         id="path4599"
         inkscape:connector-curvature="0" /><path
         d="m 46.626218,201.62174 h -1.649681 v -1.08809 q -0.833616,0.65812 -1.597033,1.00912 -0.763416,0.35099 -1.684781,0.35099 -1.544383,0 -2.404323,-0.93891 -0.859941,-0.94769 -0.859941,-2.77287 v -6.36181 h 1.649682 v 5.58084 q 0,0.74587 0.0702,1.28114 0.0702,0.52649 0.298347,0.90381 0.236922,0.3861 0.614243,0.5616 0.377321,0.17549 1.096863,0.17549 0.640568,0 1.395209,-0.33344 0.763417,-0.33345 1.421535,-0.85117 v -7.31827 h 1.649681 z"
         style="font-style:normal;font-variant:normal;font-weight:normal;font-stretch:normal;font-size:17.97100067px;font-family:Verdana;-inkscape-font-specification:'Verdana, Normal';font-variant-ligatures:normal;font-variant-caps:normal;font-variant-numeric:normal;font-feature-settings:normal;text-align:center;writing-mode:lr-tb;text-anchor:middle;stroke-width:1"
         id="path4601"
         inkscape:connector-curvature="0" /><path
         d="m 58.068691,201.62174 h -1.649682 v -5.58084 q 0,-0.67567 -0.07897,-1.26358 -0.07897,-0.5967 -0.289572,-0.93014 -0.219372,-0.36855 -0.631793,-0.54405 -0.41242,-0.18427 -1.070538,-0.18427 -0.675667,0 -1.412759,0.33345 -0.737092,0.33344 -1.41276,0.85116 v 7.31827 h -1.649681 v -9.80157 h 1.649681 v 1.08809 q 0.772192,-0.64057 1.597033,-1.00034 0.824841,-0.35977 1.693556,-0.35977 1.588257,0 2.421873,0.95647 0.833616,0.95646 0.833616,2.75532 z"
         style="font-style:normal;font-variant:normal;font-weight:normal;font-stretch:normal;font-size:17.97100067px;font-family:Verdana;-inkscape-font-specification:'Verdana, Normal';font-variant-ligatures:normal;font-variant-caps:normal;font-variant-numeric:normal;font-feature-settings:normal;text-align:center;writing-mode:lr-tb;text-anchor:middle;stroke-width:1"
         id="path4603"
         inkscape:connector-curvature="0" /><path
         d="m 68.247579,198.79622 q 0,1.34256 -1.114413,2.2025 -1.105638,0.85994 -3.027342,0.85994 -1.088087,0 -2.000677,-0.25447 -0.903815,-0.26325 -1.518059,-0.57037 v -1.8515 h 0.08775 q 0.780967,0.58792 1.737431,0.93891 0.956465,0.34222 1.833955,0.34222 1.088088,0 1.702331,-0.35099 0.614243,-0.351 0.614243,-1.10564 0,-0.57914 -0.333446,-0.87749 -0.333446,-0.29835 -1.281136,-0.50895 -0.350996,-0.079 -0.921365,-0.18427 -0.561593,-0.1053 -1.026663,-0.22815 -1.289911,-0.34222 -1.833955,-1.00033 -0.535269,-0.6669 -0.535269,-1.63214 0,-0.60546 0.245697,-1.14073 0.254472,-0.53527 0.763417,-0.95647 0.491394,-0.41242 1.246036,-0.64934 0.763417,-0.2457 1.702331,-0.2457 0.87749,0 1.77253,0.21937 0.903815,0.2106 1.500509,0.51772 v 1.76376 h -0.08775 q -0.631793,-0.46507 -1.535608,-0.78097 -0.903815,-0.32467 -1.772531,-0.32467 -0.903815,0 -1.526833,0.351 -0.623018,0.34222 -0.623018,1.02666 0,0.60547 0.377321,0.91259 0.368546,0.30712 1.193387,0.50017 0.456295,0.1053 1.017889,0.2106 0.570368,0.1053 0.947689,0.19305 1.149512,0.26324 1.77253,0.90381 0.623019,0.64934 0.623019,1.71988 z"
         style="font-style:normal;font-variant:normal;font-weight:normal;font-stretch:normal;font-size:17.97100067px;font-family:Verdana;-inkscape-font-specification:'Verdana, Normal';font-variant-ligatures:normal;font-variant-caps:normal;font-variant-numeric:normal;font-feature-settings:normal;text-align:center;writing-mode:lr-tb;text-anchor:middle;stroke-width:1"
         id="path4605"
         inkscape:connector-curvature="0" /><path
         d="m 75.706247,201.53399 q -0.46507,0.12285 -1.017889,0.20182 -0.544044,0.079 -0.974014,0.079 -1.500508,0 -2.281475,-0.80729 -0.780966,-0.80729 -0.780966,-2.5886 v -5.21229 H 69.53749 v -1.38644 h 1.114413 v -2.81674 h 1.649682 v 2.81674 h 3.404662 v 1.38644 h -3.404662 v 4.46642 q 0,0.7722 0.0351,1.21094 0.0351,0.42997 0.245698,0.80729 0.193048,0.351 0.526494,0.51772 0.342221,0.15795 1.035438,0.15795 0.403646,0 0.842391,-0.11407 0.438745,-0.12285 0.631793,-0.20183 h 0.08775 z"
         style="font-style:normal;font-variant:normal;font-weight:normal;font-stretch:normal;font-size:17.97100067px;font-family:Verdana;-inkscape-font-specification:'Verdana, Normal';font-variant-ligatures:normal;font-variant-caps:normal;font-variant-numeric:normal;font-feature-settings:normal;text-align:center;writing-mode:lr-tb;text-anchor:middle;stroke-width:1"
         id="path4607"
         inkscape:connector-curvature="0" /><path
         d="m 84.709294,198.79622 q 0,1.34256 -1.114412,2.2025 -1.105638,0.85994 -3.027342,0.85994 -1.088088,0 -2.000678,-0.25447 -0.903815,-0.26325 -1.518058,-0.57037 v -1.8515 h 0.08775 q 0.780967,0.58792 1.737431,0.93891 0.956464,0.34222 1.833955,0.34222 1.088088,0 1.702331,-0.35099 0.614243,-0.351 0.614243,-1.10564 0,-0.57914 -0.333446,-0.87749 -0.333447,-0.29835 -1.281136,-0.50895 -0.350996,-0.079 -0.921365,-0.18427 -0.561594,-0.1053 -1.026664,-0.22815 -1.28991,-0.34222 -1.833954,-1.00033 -0.535269,-0.6669 -0.535269,-1.63214 0,-0.60546 0.245697,-1.14073 0.254472,-0.53527 0.763416,-0.95647 0.491395,-0.41242 1.246037,-0.64934 0.763416,-0.2457 1.702331,-0.2457 0.87749,0 1.77253,0.21937 0.903815,0.2106 1.500508,0.51772 v 1.76376 h -0.08775 q -0.631793,-0.46507 -1.535608,-0.78097 -0.903814,-0.32467 -1.77253,-0.32467 -0.903815,0 -1.526833,0.351 -0.623018,0.34222 -0.623018,1.02666 0,0.60547 0.377321,0.91259 0.368546,0.30712 1.193387,0.50017 0.456295,0.1053 1.017888,0.2106 0.570369,0.1053 0.94769,0.19305 1.149512,0.26324 1.77253,0.90381 0.623018,0.64934 0.623018,1.71988 z"
         style="font-style:normal;font-variant:normal;font-weight:normal;font-stretch:normal;font-size:17.97100067px;font-family:Verdana;-inkscape-font-specification:'Verdana, Normal';font-variant-ligatures:normal;font-variant-caps:normal;font-variant-numeric:normal;font-feature-settings:normal;text-align:center;writing-mode:lr-tb;text-anchor:middle;stroke-width:1"
         id="path4609"
         inkscape:connector-curvature="0" /><path
         d="m 92.167963,201.53399 q -0.46507,0.12285 -1.017889,0.20182 -0.544044,0.079 -0.974014,0.079 -1.500509,0 -2.281475,-0.80729 -0.780966,-0.80729 -0.780966,-2.5886 v -5.21229 h -1.114413 v -1.38644 h 1.114413 v -2.81674 H 88.7633 v 2.81674 h 3.404663 v 1.38644 H 88.7633 v 4.46642 q 0,0.7722 0.0351,1.21094 0.0351,0.42997 0.245697,0.80729 0.193048,0.351 0.526495,0.51772 0.342221,0.15795 1.035438,0.15795 0.403646,0 0.842391,-0.11407 0.438745,-0.12285 0.631793,-0.20183 h 0.08775 z"
         style="font-style:normal;font-variant:normal;font-weight:normal;font-stretch:normal;font-size:17.97100067px;font-family:Verdana;-inkscape-font-specification:'Verdana, Normal';font-variant-ligatures:normal;font-variant-caps:normal;font-variant-numeric:normal;font-feature-settings:normal;text-align:center;writing-mode:lr-tb;text-anchor:middle;stroke-width:1"
         id="path4611"
         inkscape:connector-curvature="0" /><path
         d="m 102.52234,196.72534 q 0,2.39555 -1.22848,3.78199 -1.22849,1.38643 -3.29059,1.38643 -2.079652,0 -3.308138,-1.38643 -1.219712,-1.38644 -1.219712,-3.78199 0,-2.39554 1.219712,-3.78198 1.228486,-1.39521 3.308138,-1.39521 2.0621,0 3.29059,1.39521 1.22848,1.38644 1.22848,3.78198 z m -1.70233,0 q 0,-1.90415 -0.74586,-2.82551 -0.74587,-0.93014 -2.07088,-0.93014 -1.34256,0 -2.088427,0.93014 -0.737092,0.92136 -0.737092,2.82551 0,1.84273 0.745867,2.7992 0.745867,0.94769 2.079652,0.94769 1.316235,0 2.0621,-0.93892 0.75464,-0.94769 0.75464,-2.80797 z"
         style="font-style:normal;font-variant:normal;font-weight:normal;font-stretch:normal;font-size:17.97100067px;font-family:Verdana;-inkscape-font-specification:'Verdana, Normal';font-variant-ligatures:normal;font-variant-caps:normal;font-variant-numeric:normal;font-feature-settings:normal;text-align:center;writing-mode:lr-tb;text-anchor:middle;stroke-width:1"
         id="path4613"
         inkscape:connector-curvature="0" /><path
         d="m 110.35834,189.56502 h -0.0877 q -0.27202,-0.079 -0.71077,-0.15794 -0.43874,-0.0877 -0.77219,-0.0877 -1.06176,0 -1.54438,0.47384 -0.47385,0.46507 -0.47385,1.69356 v 0.33344 h 2.9747 v 1.38644 h -2.92205 v 8.41513 h -1.64968 v -8.41513 h -1.11441 v -1.38644 h 1.11441 v -0.32467 q 0,-1.7462 0.86872,-2.67634 0.86871,-0.93892 2.50962,-0.93892 0.55282,0 0.99156,0.0526 0.44752,0.0526 0.81607,0.12285 z"
         style="font-style:normal;font-variant:normal;font-weight:normal;font-stretch:normal;font-size:17.97100067px;font-family:Verdana;-inkscape-font-specification:'Verdana, Normal';font-variant-ligatures:normal;font-variant-caps:normal;font-variant-numeric:normal;font-feature-settings:normal;text-align:center;writing-mode:lr-tb;text-anchor:middle;stroke-width:1"
         id="path4615"
         inkscape:connector-curvature="0" /><path
         d="m 116.67626,189.56502 h -0.0877 q -0.27202,-0.079 -0.71076,-0.15794 -0.43875,-0.0877 -0.77219,-0.0877 -1.06177,0 -1.54439,0.47384 -0.47384,0.46507 -0.47384,1.69356 v 0.33344 h 2.97469 v 1.38644 h -2.92204 v 8.41513 h -1.64968 v -8.41513 h -1.11442 v -1.38644 h 1.11442 v -0.32467 q 0,-1.7462 0.86871,-2.67634 0.86872,-0.93892 2.50962,-0.93892 0.55282,0 0.99157,0.0526 0.44752,0.0526 0.81606,0.12285 z"
         style="font-style:normal;font-variant:normal;font-weight:normal;font-stretch:normal;font-size:17.97100067px;font-family:Verdana;-inkscape-font-specification:'Verdana, Normal';font-variant-ligatures:normal;font-variant-caps:normal;font-variant-numeric:normal;font-feature-settings:normal;text-align:center;writing-mode:lr-tb;text-anchor:middle;stroke-width:1"
         id="path4617"
         inkscape:connector-curvature="0" /><path
         d="m 125.67054,200.50733 q 0,2.49207 -1.13196,3.65913 -1.13196,1.16706 -3.48364,1.16706 -0.78096,0 -1.52683,-0.11407 -0.73709,-0.1053 -1.45663,-0.30712 v -1.68478 h 0.0877 q 0.40365,0.15795 1.28114,0.38609 0.87749,0.23693 1.75498,0.23693 0.84239,0 1.39521,-0.20183 0.55282,-0.20182 0.85994,-0.56159 0.30712,-0.34222 0.43875,-0.82484 0.13162,-0.48262 0.13162,-1.07931 v -0.89504 q -0.74587,0.59669 -1.43031,0.89504 -0.67567,0.28957 -1.72866,0.28957 -1.75498,0 -2.79041,-1.26359 -1.02667,-1.27236 -1.02667,-3.58016 0,-1.26359 0.351,-2.17618 0.35977,-0.92136 0.97401,-1.58825 0.57037,-0.62302 1.38644,-0.96524 0.81606,-0.351 1.62335,-0.351 0.85117,0 1.42154,0.1755 0.57914,0.16672 1.21971,0.51772 l 0.1053,-0.4212 h 1.54438 z m -1.64968,-1.57948 v -5.34392 q -0.65812,-0.29835 -1.22849,-0.4212 -0.56159,-0.13162 -1.12318,-0.13162 -1.36011,0 -2.14108,0.91259 -0.78097,0.91259 -0.78097,2.65002 0,1.64968 0.57915,2.50085 0.57914,0.85116 1.9217,0.85116 0.71954,0 1.43908,-0.27202 0.72832,-0.28079 1.33379,-0.74586 z"
         style="font-style:normal;font-variant:normal;font-weight:normal;font-stretch:normal;font-size:17.97100067px;font-family:Verdana;-inkscape-font-specification:'Verdana, Normal';font-variant-ligatures:normal;font-variant-caps:normal;font-variant-numeric:normal;font-feature-settings:normal;text-align:center;writing-mode:lr-tb;text-anchor:middle;stroke-width:1"
         id="path4619"
         inkscape:connector-curvature="0" /><path
         d="m 137.12179,196.89207 h -7.22174 q 0,0.90381 0.27202,1.57948 0.27202,0.66689 0.74586,1.09686 0.4563,0.4212 1.07932,0.6318 0.63179,0.21059 1.38643,0.21059 1.00034,0 2.00945,-0.39487 1.01789,-0.40364 1.44786,-0.78974 h 0.0877 v 1.79886 q -0.83361,0.35099 -1.70233,0.58792 -0.86871,0.23692 -1.82518,0.23692 -2.43942,0 -3.80831,-1.31624 -1.36888,-1.32501 -1.36888,-3.75566 0,-2.40432 1.30746,-3.81708 1.31624,-1.41276 3.45731,-1.41276 1.98313,0 3.05367,1.15829 1.07931,1.15829 1.07931,3.29059 z m -1.60581,-1.26359 q -0.009,-1.29868 -0.65811,-2.00945 -0.64057,-0.71077 -1.95681,-0.71077 -1.32501,0 -2.11475,0.78097 -0.78097,0.78096 -0.88626,1.93925 z"
         style="font-style:normal;font-variant:normal;font-weight:normal;font-stretch:normal;font-size:17.97100067px;font-family:Verdana;-inkscape-font-specification:'Verdana, Normal';font-variant-ligatures:normal;font-variant-caps:normal;font-variant-numeric:normal;font-feature-settings:normal;text-align:center;writing-mode:lr-tb;text-anchor:middle;stroke-width:1"
         id="path4621"
         inkscape:connector-curvature="0" /><path
         d="m 147.8184,201.62174 h -1.64968 v -5.58084 q 0,-0.67567 -0.079,-1.26358 -0.079,-0.5967 -0.28957,-0.93014 -0.21937,-0.36855 -0.63179,-0.54405 -0.41242,-0.18427 -1.07054,-0.18427 -0.67567,0 -1.41276,0.33345 -0.73709,0.33344 -1.41276,0.85116 v 7.31827 h -1.64968 v -13.65375 h 1.64968 v 4.94027 q 0.77219,-0.64057 1.59703,-1.00034 0.82484,-0.35977 1.69356,-0.35977 1.58826,0 2.42187,0.95647 0.83362,0.95646 0.83362,2.75532 z"
         style="font-style:normal;font-variant:normal;font-weight:normal;font-stretch:normal;font-size:17.97100067px;font-family:Verdana;-inkscape-font-specification:'Verdana, Normal';font-variant-ligatures:normal;font-variant-caps:normal;font-variant-numeric:normal;font-feature-settings:normal;text-align:center;writing-mode:lr-tb;text-anchor:middle;stroke-width:1"
         id="path4623"
         inkscape:connector-curvature="0" /><path
         d="m 158.61152,201.62174 h -1.6409 v -1.04421 q -0.21938,0.14917 -0.5967,0.42119 -0.36854,0.26325 -0.71954,0.4212 -0.41242,0.20182 -0.94769,0.33344 -0.53527,0.1404 -1.25481,0.1404 -1.32501,0 -2.24637,-0.87749 -0.92137,-0.87749 -0.92137,-2.2376 0,-1.11441 0.47385,-1.79885 0.48262,-0.69322 1.36888,-1.08809 0.89504,-0.39487 2.14985,-0.53527 1.25481,-0.1404 2.6939,-0.2106 v -0.25447 q 0,-0.56159 -0.20183,-0.93014 -0.19304,-0.36855 -0.56159,-0.57914 -0.351,-0.20183 -0.84239,-0.27203 -0.49139,-0.0702 -1.02666,-0.0702 -0.64935,0 -1.44786,0.17549 -0.79852,0.16673 -1.64968,0.4914 h -0.0877 v -1.67601 q 0.48262,-0.13162 1.39521,-0.28957 0.91259,-0.15795 1.79885,-0.15795 1.03544,0 1.79886,0.1755 0.77219,0.16672 1.33378,0.57914 0.55282,0.40365 0.84239,1.04422 0.28957,0.64056 0.28957,1.58825 z m -1.6409,-2.4131 v -2.72899 q -0.75464,0.0439 -1.78131,0.13162 -1.01789,0.0877 -1.61458,0.25447 -0.71077,0.20183 -1.14951,0.6318 -0.43875,0.42119 -0.43875,1.16706 0,0.84239 0.50895,1.27236 0.50894,0.42119 1.55315,0.42119 0.86872,0 1.58826,-0.33344 0.71954,-0.34222 1.33379,-0.81607 z m 0.52649,-9.02937 h -1.7462 v -1.71111 h 1.7462 z m -3.62403,0 h -1.74621 v -1.71111 h 1.74621 z"
         style="font-style:normal;font-variant:normal;font-weight:normal;font-stretch:normal;font-size:17.97100067px;font-family:Verdana;-inkscape-font-specification:'Verdana, Normal';font-variant-ligatures:normal;font-variant-caps:normal;font-variant-numeric:normal;font-feature-settings:normal;text-align:center;writing-mode:lr-tb;text-anchor:middle;stroke-width:1"
         id="path4625"
         inkscape:connector-curvature="0" /><path
         d="m 169.93115,201.62174 h -1.64968 v -1.08809 q -0.83361,0.65812 -1.59703,1.00912 -0.76342,0.35099 -1.68478,0.35099 -1.54439,0 -2.40433,-0.93891 -0.85994,-0.94769 -0.85994,-2.77287 v -6.36181 h 1.64969 v 5.58084 q 0,0.74587 0.0702,1.28114 0.0702,0.52649 0.29835,0.90381 0.23692,0.3861 0.61424,0.5616 0.37733,0.17549 1.09687,0.17549 0.64057,0 1.39521,-0.33344 0.76341,-0.33345 1.42153,-0.85117 v -7.31827 h 1.64968 z"
         style="font-style:normal;font-variant:normal;font-weight:normal;font-stretch:normal;font-size:17.97100067px;font-family:Verdana;-inkscape-font-specification:'Verdana, Normal';font-variant-ligatures:normal;font-variant-caps:normal;font-variant-numeric:normal;font-feature-settings:normal;text-align:center;writing-mode:lr-tb;text-anchor:middle;stroke-width:1"
         id="path4627"
         inkscape:connector-curvature="0" /><path
         d="m 180.18023,198.79622 q 0,1.34256 -1.11441,2.2025 -1.10564,0.85994 -3.02734,0.85994 -1.08809,0 -2.00068,-0.25447 -0.90381,-0.26325 -1.51806,-0.57037 v -1.8515 h 0.0877 q 0.78097,0.58792 1.73743,0.93891 0.95647,0.34222 1.83396,0.34222 1.08809,0 1.70233,-0.35099 0.61424,-0.351 0.61424,-1.10564 0,-0.57914 -0.33344,-0.87749 -0.33345,-0.29835 -1.28114,-0.50895 -0.351,-0.079 -0.92136,-0.18427 -0.5616,-0.1053 -1.02667,-0.22815 -1.28991,-0.34222 -1.83395,-1.00033 -0.53527,-0.6669 -0.53527,-1.63214 0,-0.60546 0.2457,-1.14073 0.25447,-0.53527 0.76341,-0.95647 0.4914,-0.41242 1.24604,-0.64934 0.76341,-0.2457 1.70233,-0.2457 0.87749,0 1.77253,0.21937 0.90381,0.2106 1.50051,0.51772 v 1.76376 h -0.0877 q -0.63179,-0.46507 -1.53561,-0.78097 -0.90381,-0.32467 -1.77253,-0.32467 -0.90381,0 -1.52683,0.351 -0.62302,0.34222 -0.62302,1.02666 0,0.60547 0.37732,0.91259 0.36855,0.30712 1.19339,0.50017 0.45629,0.1053 1.01789,0.2106 0.57036,0.1053 0.94769,0.19305 1.14951,0.26324 1.77253,0.90381 0.62301,0.64934 0.62301,1.71988 z"
         style="font-style:normal;font-variant:normal;font-weight:normal;font-stretch:normal;font-size:17.97100067px;font-family:Verdana;-inkscape-font-specification:'Verdana, Normal';font-variant-ligatures:normal;font-variant-caps:normal;font-variant-numeric:normal;font-feature-settings:normal;text-align:center;writing-mode:lr-tb;text-anchor:middle;stroke-width:1"
         id="path4629"
         inkscape:connector-curvature="0" /><path
         d="m 190.75399,196.89207 h -7.22174 q 0,0.90381 0.27202,1.57948 0.27202,0.66689 0.74587,1.09686 0.45629,0.4212 1.07931,0.6318 0.63179,0.21059 1.38643,0.21059 1.00034,0 2.00946,-0.39487 1.01789,-0.40364 1.44786,-0.78974 h 0.0877 v 1.79886 q -0.83361,0.35099 -1.70233,0.58792 -0.86871,0.23692 -1.82518,0.23692 -2.43942,0 -3.8083,-1.31624 -1.36889,-1.32501 -1.36889,-3.75566 0,-2.40432 1.30746,-3.81708 1.31624,-1.41276 3.45731,-1.41276 1.98313,0 3.05367,1.15829 1.07931,1.15829 1.07931,3.29059 z m -1.6058,-1.26359 q -0.009,-1.29868 -0.65812,-2.00945 -0.64057,-0.71077 -1.95681,-0.71077 -1.32501,0 -2.11475,0.78097 -0.78096,0.78096 -0.88626,1.93925 z"
         style="font-style:normal;font-variant:normal;font-weight:normal;font-stretch:normal;font-size:17.97100067px;font-family:Verdana;-inkscape-font-specification:'Verdana, Normal';font-variant-ligatures:normal;font-variant-caps:normal;font-variant-numeric:normal;font-feature-settings:normal;text-align:center;writing-mode:lr-tb;text-anchor:middle;stroke-width:1"
         id="path4631"
         inkscape:connector-curvature="0" /></g><g
       aria-label="Kathode"
       transform="scale(1.0000783,0.9999217)"
       style="font-style:normal;font-variant:normal;font-weight:normal;font-stretch:normal;font-size:17.97094536px;font-family:Verdana;-inkscape-font-specification:'Verdana, Normal';font-variant-ligatures:normal;font-variant-caps:normal;font-variant-numeric:normal;font-feature-settings:normal;text-align:start;writing-mode:lr-tb;text-anchor:start;stroke-width:1"
       id="text4563"><path
         d="m 169.05898,510.66165 h -2.25515 l -5.1684,-5.81774 -1.29868,1.38643 v 4.43131 h -1.73742 v -13.06579 h 1.73742 v 6.81808 l 6.34424,-6.81808 h 2.10597 l -5.8353,6.14241 z"
         style="font-style:normal;font-variant:normal;font-weight:normal;font-stretch:normal;font-size:17.97094536px;font-family:Verdana;-inkscape-font-specification:'Verdana, Normal';font-variant-ligatures:normal;font-variant-caps:normal;font-variant-numeric:normal;font-feature-settings:normal;text-align:start;writing-mode:lr-tb;text-anchor:start;stroke-width:1"
         id="path4634"
         inkscape:connector-curvature="0" /><path
         d="m 177.97425,510.66165 h -1.6409 v -1.04421 q -0.21937,0.14917 -0.59669,0.4212 -0.36855,0.26324 -0.71954,0.42119 -0.41242,0.20182 -0.94769,0.33344 -0.53527,0.1404 -1.25481,0.1404 -1.325,0 -2.24636,-0.87748 -0.92137,-0.87749 -0.92137,-2.2376 0,-1.11441 0.47385,-1.79885 0.48262,-0.69321 1.36888,-1.08808 0.89504,-0.39487 2.14984,-0.53527 1.25481,-0.1404 2.69389,-0.2106 v -0.25447 q 0,-0.56159 -0.20182,-0.93013 -0.19305,-0.36855 -0.56159,-0.57915 -0.351,-0.20182 -0.84239,-0.27202 -0.4914,-0.0702 -1.02666,-0.0702 -0.64934,0 -1.44786,0.1755 -0.79851,0.16672 -1.64967,0.49139 h -0.0877 v -1.676 q 0.48262,-0.13162 1.3952,-0.28957 0.91259,-0.15795 1.79885,-0.15795 1.03544,0 1.79885,0.1755 0.77219,0.16672 1.33378,0.57914 0.55282,0.40365 0.84239,1.04421 0.28957,0.64057 0.28957,1.58826 z m -1.6409,-2.41309 v -2.72899 q -0.75464,0.0439 -1.7813,0.13163 -1.01789,0.0877 -1.61458,0.25447 -0.71076,0.20182 -1.14951,0.63179 -0.43874,0.42119 -0.43874,1.16706 0,0.84239 0.50894,1.27236 0.50895,0.42119 1.55316,0.42119 0.86871,0 1.58825,-0.33345 0.71954,-0.34222 1.33378,-0.81606 z"
         style="font-style:normal;font-variant:normal;font-weight:normal;font-stretch:normal;font-size:17.97094536px;font-family:Verdana;-inkscape-font-specification:'Verdana, Normal';font-variant-ligatures:normal;font-variant-caps:normal;font-variant-numeric:normal;font-feature-settings:normal;text-align:start;writing-mode:lr-tb;text-anchor:start;stroke-width:1"
         id="path4636"
         inkscape:connector-curvature="0" /><path
         d="m 186.25773,510.5739 q -0.46506,0.12285 -1.01788,0.20182 -0.54404,0.079 -0.97401,0.079 -1.50051,0 -2.28147,-0.80729 -0.78096,-0.80729 -0.78096,-2.58859 v -5.21227 H 180.089 v -1.38643 h 1.11441 v -2.81674 h 1.64967 v 2.81674 h 3.40465 v 1.38643 h -3.40465 v 4.46641 q 0,0.77219 0.0351,1.21093 0.0351,0.42997 0.2457,0.80729 0.19305,0.35099 0.52649,0.51772 0.34222,0.15794 1.03544,0.15794 0.40364,0 0.84238,-0.11407 0.43875,-0.12285 0.6318,-0.20182 h 0.0877 z"
         style="font-style:normal;font-variant:normal;font-weight:normal;font-stretch:normal;font-size:17.97094536px;font-family:Verdana;-inkscape-font-specification:'Verdana, Normal';font-variant-ligatures:normal;font-variant-caps:normal;font-variant-numeric:normal;font-feature-settings:normal;text-align:start;writing-mode:lr-tb;text-anchor:start;stroke-width:1"
         id="path4638"
         inkscape:connector-curvature="0" /><path
         d="m 196.45414,510.66165 h -1.64968 v -5.58082 q 0,-0.67566 -0.079,-1.26358 -0.079,-0.59669 -0.28957,-0.93014 -0.21937,-0.36854 -0.63179,-0.54404 -0.41242,-0.18427 -1.07054,-0.18427 -0.67566,0 -1.41275,0.33344 -0.73709,0.33345 -1.41276,0.85117 v 7.31824 h -1.64967 v -13.6537 h 1.64967 v 4.94025 q 0.77219,-0.64057 1.59703,-1.00034 0.82484,-0.35977 1.69355,-0.35977 1.58825,0 2.42187,0.95647 0.83361,0.95646 0.83361,2.75531 z"
         style="font-style:normal;font-variant:normal;font-weight:normal;font-stretch:normal;font-size:17.97094536px;font-family:Verdana;-inkscape-font-specification:'Verdana, Normal';font-variant-ligatures:normal;font-variant-caps:normal;font-variant-numeric:normal;font-feature-settings:normal;text-align:start;writing-mode:lr-tb;text-anchor:start;stroke-width:1"
         id="path4640"
         inkscape:connector-curvature="0" /><path
         d="m 207.98433,505.76527 q 0,2.39554 -1.22849,3.78197 -1.22848,1.38643 -3.29057,1.38643 -2.07965,0 -3.30813,-1.38643 -1.21971,-1.38643 -1.21971,-3.78197 0,-2.39554 1.21971,-3.78197 1.22848,-1.39521 3.30813,-1.39521 2.06209,0 3.29057,1.39521 1.22849,1.38643 1.22849,3.78197 z m -1.70233,0 q 0,-1.90415 -0.74586,-2.82551 -0.74587,-0.93014 -2.07087,-0.93014 -1.34256,0 -2.08842,0.93014 -0.73709,0.92136 -0.73709,2.82551 0,1.84272 0.74586,2.79919 0.74587,0.94768 2.07965,0.94768 1.31623,0 2.06209,-0.93891 0.75464,-0.94769 0.75464,-2.80796 z"
         style="font-style:normal;font-variant:normal;font-weight:normal;font-stretch:normal;font-size:17.97094536px;font-family:Verdana;-inkscape-font-specification:'Verdana, Normal';font-variant-ligatures:normal;font-variant-caps:normal;font-variant-numeric:normal;font-feature-settings:normal;text-align:start;writing-mode:lr-tb;text-anchor:start;stroke-width:1"
         id="path4642"
         inkscape:connector-curvature="0" /><path
         d="m 218.49663,510.66165 h -1.64968 v -1.02666 q -0.71077,0.61424 -1.48295,0.95646 -0.77219,0.34222 -1.67601,0.34222 -1.75497,0 -2.79041,-1.35133 -1.02666,-1.35133 -1.02666,-3.74687 0,-1.24603 0.351,-2.22004 0.35977,-0.97401 0.96523,-1.65846 0.5967,-0.66689 1.38644,-1.01788 0.79851,-0.351 1.64967,-0.351 0.77219,0 1.36888,0.16673 0.59669,0.15794 1.25481,0.50016 v -4.24703 h 1.64968 z m -1.64968,-2.41309 v -5.62469 q -0.66689,-0.29835 -1.19338,-0.41242 -0.5265,-0.11408 -1.14951,-0.11408 -1.38643,0 -2.15862,0.96524 -0.77219,0.96524 -0.77219,2.73776 0,1.7462 0.59669,2.65879 0.59669,0.90381 1.91292,0.90381 0.70199,0 1.42153,-0.30712 0.71954,-0.3159 1.34256,-0.80729 z"
         style="font-style:normal;font-variant:normal;font-weight:normal;font-stretch:normal;font-size:17.97094536px;font-family:Verdana;-inkscape-font-specification:'Verdana, Normal';font-variant-ligatures:normal;font-variant-caps:normal;font-variant-numeric:normal;font-feature-settings:normal;text-align:start;writing-mode:lr-tb;text-anchor:start;stroke-width:1"
         id="path4644"
         inkscape:connector-curvature="0" /><path
         d="m 229.94784,505.93199 h -7.22172 q 0,0.90382 0.27202,1.57948 0.27202,0.66689 0.74586,1.09686 0.4563,0.42119 1.07931,0.63179 0.63179,0.2106 1.38643,0.2106 1.00034,0 2.00945,-0.39487 1.01789,-0.40364 1.44785,-0.78974 h 0.0878 v 1.79885 q -0.83361,0.351 -1.70232,0.58792 -0.86872,0.23692 -1.82518,0.23692 -2.43941,0 -3.80829,-1.31623 -1.36888,-1.32501 -1.36888,-3.75565 0,-2.40432 1.30745,-3.81707 1.31623,-1.41276 3.4573,-1.41276 1.98313,0 3.05366,1.15829 1.07931,1.15828 1.07931,3.29058 z m -1.6058,-1.26358 q -0.009,-1.29868 -0.65812,-2.00944 -0.64056,-0.71077 -1.95679,-0.71077 -1.32501,0 -2.11475,0.78096 -0.78096,0.78097 -0.88626,1.93925 z"
         style="font-style:normal;font-variant:normal;font-weight:normal;font-stretch:normal;font-size:17.97094536px;font-family:Verdana;-inkscape-font-specification:'Verdana, Normal';font-variant-ligatures:normal;font-variant-caps:normal;font-variant-numeric:normal;font-feature-settings:normal;text-align:start;writing-mode:lr-tb;text-anchor:start;stroke-width:1"
         id="path4646"
         inkscape:connector-curvature="0" /></g><g
       aria-label="Anode"
       transform="scale(1.0000783,0.9999217)"
       style="font-style:normal;font-variant:normal;font-weight:normal;font-stretch:normal;font-size:17.97094536px;font-family:Verdana;-inkscape-font-specification:'Verdana, Normal';font-variant-ligatures:normal;font-variant-caps:normal;font-variant-numeric:normal;font-feature-settings:normal;text-align:start;writing-mode:lr-tb;text-anchor:start;stroke-width:1"
       id="text4565"><path
         d="m 19.270122,510.66165 h -1.851499 l -1.281132,-3.64157 h -5.65102 l -1.2811314,3.64157 h -1.76375 l 4.7559824,-13.06579 h 2.316567 z m -3.667898,-5.1333 -2.290243,-6.41443 -2.299017,6.41443 z"
         style="font-style:normal;font-variant:normal;font-weight:normal;font-stretch:normal;font-size:17.97094536px;font-family:Verdana;-inkscape-font-specification:'Verdana, Normal';font-variant-ligatures:normal;font-variant-caps:normal;font-variant-numeric:normal;font-feature-settings:normal;text-align:start;writing-mode:lr-tb;text-anchor:start;stroke-width:1"
         id="path4649"
         inkscape:connector-curvature="0" /><path
         d="m 29.317355,510.66165 h -1.649677 v -5.58082 q 0,-0.67566 -0.07897,-1.26358 -0.07897,-0.59669 -0.28957,-0.93014 -0.219372,-0.36854 -0.631792,-0.54404 -0.412419,-0.18427 -1.070534,-0.18427 -0.675666,0 -1.412755,0.33344 -0.73709,0.33345 -1.412755,0.85117 v 7.31824 h -1.649677 v -9.80153 h 1.649677 v 1.08808 q 0.772189,-0.64057 1.597027,-1.00034 0.824838,-0.35977 1.693551,-0.35977 1.588253,0 2.421866,0.95647 0.833613,0.95646 0.833613,2.75531 z"
         style="font-style:normal;font-variant:normal;font-weight:normal;font-stretch:normal;font-size:17.97094536px;font-family:Verdana;-inkscape-font-specification:'Verdana, Normal';font-variant-ligatures:normal;font-variant-caps:normal;font-variant-numeric:normal;font-feature-settings:normal;text-align:start;writing-mode:lr-tb;text-anchor:start;stroke-width:1"
         id="path4651"
         inkscape:connector-curvature="0" /><path
         d="m 40.847543,505.76527 q 0,2.39554 -1.228483,3.78197 -1.228482,1.38643 -3.290578,1.38643 -2.079646,0 -3.308128,-1.38643 -1.219708,-1.38643 -1.219708,-3.78197 0,-2.39554 1.219708,-3.78197 1.228482,-1.39521 3.308128,-1.39521 2.062096,0 3.290578,1.39521 1.228483,1.38643 1.228483,3.78197 z m -1.702326,0 q 0,-1.90415 -0.745865,-2.82551 -0.745864,-0.93014 -2.07087,-0.93014 -1.342556,0 -2.088421,0.93014 -0.737089,0.92136 -0.737089,2.82551 0,1.84272 0.745864,2.79919 0.745865,0.94768 2.079646,0.94768 1.316231,0 2.062096,-0.93891 0.754639,-0.94769 0.754639,-2.80796 z"
         style="font-style:normal;font-variant:normal;font-weight:normal;font-stretch:normal;font-size:17.97094536px;font-family:Verdana;-inkscape-font-specification:'Verdana, Normal';font-variant-ligatures:normal;font-variant-caps:normal;font-variant-numeric:normal;font-feature-settings:normal;text-align:start;writing-mode:lr-tb;text-anchor:start;stroke-width:1"
         id="path4653"
         inkscape:connector-curvature="0" /><path
         d="m 51.359842,510.66165 h -1.649677 v -1.02666 q -0.710765,0.61424 -1.482954,0.95646 -0.772189,0.34222 -1.676001,0.34222 -1.754975,0 -2.790411,-1.35133 -1.02666,-1.35133 -1.02666,-3.74687 0,-1.24603 0.350995,-2.22004 0.35977,-0.97401 0.965236,-1.65846 0.596692,-0.66689 1.386431,-1.01788 0.798513,-0.351 1.649676,-0.351 0.772189,0 1.368881,0.16673 0.596691,0.15794 1.254807,0.50016 v -4.24703 h 1.649677 z m -1.649677,-2.41309 v -5.62469 q -0.666891,-0.29835 -1.193383,-0.41242 -0.526493,-0.11408 -1.149509,-0.11408 -1.38643,0 -2.158619,0.96524 -0.772189,0.96524 -0.772189,2.73776 0,1.7462 0.596691,2.65879 0.596692,0.90381 1.912923,0.90381 0.70199,0 1.42153,-0.30712 0.71954,-0.3159 1.342556,-0.80729 z"
         style="font-style:normal;font-variant:normal;font-weight:normal;font-stretch:normal;font-size:17.97094536px;font-family:Verdana;-inkscape-font-specification:'Verdana, Normal';font-variant-ligatures:normal;font-variant-caps:normal;font-variant-numeric:normal;font-feature-settings:normal;text-align:start;writing-mode:lr-tb;text-anchor:start;stroke-width:1"
         id="path4655"
         inkscape:connector-curvature="0" /><path
         d="m 62.811056,505.93199 h -7.221723 q 0,0.90382 0.272022,1.57948 0.272021,0.66689 0.745864,1.09686 0.456293,0.42119 1.07931,0.63179 0.631791,0.2106 1.38643,0.2106 1.000336,0 2.009447,-0.39487 1.017885,-0.40364 1.447854,-0.78974 h 0.08775 v 1.79885 q -0.833613,0.351 -1.702326,0.58792 -0.868713,0.23692 -1.825174,0.23692 -2.439416,0 -3.808296,-1.31623 -1.368881,-1.32501 -1.368881,-3.75565 0,-2.40432 1.307457,-3.81707 1.316231,-1.41276 3.457301,-1.41276 1.983122,0 3.053656,1.15829 1.07931,1.15828 1.07931,3.29058 z m -1.605802,-1.26358 q -0.0088,-1.29868 -0.658116,-2.00944 -0.640566,-0.71077 -1.956797,-0.71077 -1.325006,0 -2.114745,0.78096 -0.780964,0.78097 -0.886263,1.93925 z"
         style="font-style:normal;font-variant:normal;font-weight:normal;font-stretch:normal;font-size:17.97094536px;font-family:Verdana;-inkscape-font-specification:'Verdana, Normal';font-variant-ligatures:normal;font-variant-caps:normal;font-variant-numeric:normal;font-feature-settings:normal;text-align:start;writing-mode:lr-tb;text-anchor:start;stroke-width:1"
         id="path4657"
         inkscape:connector-curvature="0" /></g><path
       id="path4567"
       d="m 158.61172,539.82631 h 34.23305"
       inkscape:connector-curvature="0"
       style="fill:none;stroke:#010101;stroke-width:4" /></g></svg>